<svg xmlns="http://www.w3.org/2000/svg" xmlns:xlink="http://www.w3.org/1999/xlink" width="211" zoomAndPan="magnify" viewBox="0 0 158.25 42" height="56" preserveAspectRatio="xMidYMid meet" version="1.0"><defs><g/><clipPath id="0d9253afbd"><path d="M 5 4 L 43 4 L 43 37 L 5 37 Z M 5 4 " clip-rule="nonzero"/></clipPath><clipPath id="cb33be1657"><path d="M 1.476562 14.964844 L 35.820312 0.421875 L 46.464844 25.566406 L 12.121094 40.109375 Z M 1.476562 14.964844 " clip-rule="nonzero"/></clipPath><clipPath id="ff10701dff"><path d="M 1.476562 14.964844 L 35.820312 0.421875 L 46.464844 25.566406 L 12.121094 40.109375 Z M 1.476562 14.964844 " clip-rule="nonzero"/></clipPath></defs><g clip-path="url(#0d9253afbd)"><g clip-path="url(#cb33be1657)"><g clip-path="url(#ff10701dff)"><path fill="#7843e9" d="M 19.78125 19.308594 L 14.5 17.167969 L 11.3125 25.035156 L 10.15625 24.566406 L 13.8125 15.542969 L 20.25 18.152344 L 25.691406 4.714844 L 40.285156 10.625 L 39.238281 13.210938 L 38.082031 12.742188 L 38.660156 11.3125 L 26.378906 6.339844 L 17.378906 28.558594 L 19.722656 29.507812 C 22.398438 22.902344 25.074219 16.296875 27.75 9.691406 L 27.773438 9.632812 L 42.367188 15.542969 L 36.457031 30.136719 L 27.433594 26.480469 L 27.902344 25.324219 L 35.769531 28.511719 L 40.742188 16.230469 L 31.960938 12.675781 L 28.40625 21.457031 L 33.6875 23.59375 L 36.871094 15.726562 L 38.027344 16.195312 L 34.375 25.21875 L 27.9375 22.609375 L 22.492188 36.050781 L 7.898438 30.136719 L 8.949219 27.550781 L 10.105469 28.019531 L 9.523438 29.449219 L 21.804688 34.425781 L 30.804688 12.207031 L 28.460938 11.257812 C 25.785156 17.863281 23.109375 24.464844 20.433594 31.070312 L 20.410156 31.132812 L 5.816406 25.21875 L 11.730469 10.625 L 20.753906 14.28125 L 20.285156 15.4375 L 12.417969 12.25 L 7.441406 24.53125 L 16.222656 28.089844 Z M 19.78125 19.308594 " fill-opacity="1" fill-rule="evenodd"/></g></g></g><g fill="#ffffff" fill-opacity="1"><g transform="translate(46.675423, 25.712946)"><g><path d="M 0.171875 -14.0625 L 0.171875 -17.578125 L 12.53125 -17.578125 L 12.53125 -14.0625 L 8.359375 -14.0625 L 8.359375 0 L 4.34375 0 L 4.34375 -14.0625 Z M 0.171875 -14.0625 "/></g></g></g><g fill="#ffffff" fill-opacity="1"><g transform="translate(57.374079, 25.712946)"><g><path d="M 12.34375 -4.9375 L 4.40625 -4.9375 C 4.40625 -4.175781 4.65625 -3.609375 5.15625 -3.234375 C 5.65625 -2.867188 6.195312 -2.6875 6.78125 -2.6875 C 7.382812 -2.6875 7.863281 -2.765625 8.21875 -2.921875 C 8.582031 -3.085938 8.988281 -3.414062 9.4375 -3.90625 L 12.171875 -2.53125 C 11.035156 -0.632812 9.144531 0.3125 6.5 0.3125 C 4.851562 0.3125 3.4375 -0.25 2.25 -1.375 C 1.070312 -2.5 0.484375 -3.859375 0.484375 -5.453125 C 0.484375 -7.046875 1.070312 -8.410156 2.25 -9.546875 C 3.4375 -10.679688 4.851562 -11.25 6.5 -11.25 C 8.226562 -11.25 9.632812 -10.75 10.71875 -9.75 C 11.8125 -8.75 12.359375 -7.316406 12.359375 -5.453125 C 12.359375 -5.203125 12.351562 -5.03125 12.34375 -4.9375 Z M 4.515625 -7.03125 L 8.671875 -7.03125 C 8.585938 -7.601562 8.363281 -8.039062 8 -8.34375 C 7.632812 -8.644531 7.171875 -8.796875 6.609375 -8.796875 C 5.984375 -8.796875 5.484375 -8.632812 5.109375 -8.3125 C 4.742188 -7.988281 4.546875 -7.5625 4.515625 -7.03125 Z M 4.515625 -7.03125 "/></g></g></g><g fill="#ffffff" fill-opacity="1"><g transform="translate(68.221918, 25.712946)"><g><path d="M 7.09375 -8.15625 C 6.382812 -8.15625 5.773438 -7.890625 5.265625 -7.359375 C 4.753906 -6.835938 4.5 -6.210938 4.5 -5.484375 C 4.5 -4.722656 4.753906 -4.078125 5.265625 -3.546875 C 5.773438 -3.023438 6.382812 -2.765625 7.09375 -2.765625 C 7.4375 -2.765625 7.757812 -2.804688 8.0625 -2.890625 C 8.375 -2.984375 8.597656 -3.070312 8.734375 -3.15625 L 8.9375 -3.28125 L 10.203125 -0.65625 C 10.109375 -0.582031 9.972656 -0.492188 9.796875 -0.390625 C 9.617188 -0.285156 9.210938 -0.144531 8.578125 0.03125 C 7.941406 0.21875 7.265625 0.3125 6.546875 0.3125 C 4.941406 0.3125 3.53125 -0.25 2.3125 -1.375 C 1.09375 -2.5 0.484375 -3.851562 0.484375 -5.4375 C 0.484375 -7.03125 1.09375 -8.394531 2.3125 -9.53125 C 3.53125 -10.675781 4.941406 -11.25 6.546875 -11.25 C 7.265625 -11.25 7.929688 -11.160156 8.546875 -10.984375 C 9.160156 -10.816406 9.59375 -10.648438 9.84375 -10.484375 L 10.203125 -10.234375 L 8.9375 -7.65625 C 8.46875 -7.988281 7.851562 -8.15625 7.09375 -8.15625 Z M 7.09375 -8.15625 "/></g></g></g><g fill="#ffffff" fill-opacity="1"><g transform="translate(76.682812, 25.712946)"><g><path d="M 1.28125 0 L 1.28125 -18.328125 L 5.046875 -18.328125 L 5.046875 -9.78125 L 5.09375 -9.78125 C 6.070312 -10.757812 7.117188 -11.25 8.234375 -11.25 C 8.765625 -11.25 9.296875 -11.175781 9.828125 -11.03125 C 10.367188 -10.894531 10.882812 -10.675781 11.375 -10.375 C 11.863281 -10.082031 12.257812 -9.660156 12.5625 -9.109375 C 12.863281 -8.566406 13.015625 -7.929688 13.015625 -7.203125 L 13.015625 0 L 9.25 0 L 9.25 -6.1875 C 9.25 -6.75 9.066406 -7.242188 8.703125 -7.671875 C 8.335938 -8.097656 7.863281 -8.3125 7.28125 -8.3125 C 6.71875 -8.3125 6.203125 -8.085938 5.734375 -7.640625 C 5.273438 -7.203125 5.046875 -6.71875 5.046875 -6.1875 L 5.046875 0 Z M 1.28125 0 "/></g></g></g><g fill="#ffffff" fill-opacity="1"><g transform="translate(88.766749, 25.712946)"><g><path d="M 7.75 -17.90625 C 8.707031 -17.90625 9.640625 -17.765625 10.546875 -17.484375 C 11.453125 -17.210938 12.128906 -16.941406 12.578125 -16.671875 L 13.21875 -16.234375 L 11.59375 -13.046875 C 11.46875 -13.128906 11.289062 -13.238281 11.0625 -13.375 C 10.832031 -13.507812 10.40625 -13.691406 9.78125 -13.921875 C 9.15625 -14.148438 8.570312 -14.265625 8.03125 -14.265625 C 7.363281 -14.265625 6.847656 -14.117188 6.484375 -13.828125 C 6.128906 -13.546875 5.953125 -13.164062 5.953125 -12.6875 C 5.953125 -12.4375 6.035156 -12.207031 6.203125 -12 C 6.367188 -11.800781 6.65625 -11.582031 7.0625 -11.34375 C 7.476562 -11.113281 7.84375 -10.925781 8.15625 -10.78125 C 8.46875 -10.644531 8.953125 -10.429688 9.609375 -10.140625 C 10.742188 -9.660156 11.710938 -9.003906 12.515625 -8.171875 C 13.316406 -7.335938 13.71875 -6.394531 13.71875 -5.34375 C 13.71875 -4.34375 13.535156 -3.460938 13.171875 -2.703125 C 12.816406 -1.953125 12.320312 -1.363281 11.6875 -0.9375 C 11.050781 -0.507812 10.347656 -0.195312 9.578125 0 C 8.816406 0.207031 7.988281 0.3125 7.09375 0.3125 C 6.332031 0.3125 5.582031 0.234375 4.84375 0.078125 C 4.101562 -0.078125 3.484375 -0.269531 2.984375 -0.5 C 2.484375 -0.738281 2.035156 -0.96875 1.640625 -1.1875 C 1.242188 -1.414062 0.953125 -1.609375 0.765625 -1.765625 L 0.484375 -2 L 2.5 -5.375 C 2.664062 -5.226562 2.894531 -5.046875 3.1875 -4.828125 C 3.488281 -4.609375 4.019531 -4.3125 4.78125 -3.9375 C 5.539062 -3.570312 6.210938 -3.390625 6.796875 -3.390625 C 8.484375 -3.390625 9.328125 -3.960938 9.328125 -5.109375 C 9.328125 -5.359375 9.265625 -5.582031 9.140625 -5.78125 C 9.023438 -5.988281 8.816406 -6.195312 8.515625 -6.40625 C 8.210938 -6.613281 7.941406 -6.773438 7.703125 -6.890625 C 7.472656 -7.015625 7.085938 -7.203125 6.546875 -7.453125 C 6.015625 -7.703125 5.625 -7.890625 5.375 -8.015625 C 4.300781 -8.535156 3.472656 -9.191406 2.890625 -9.984375 C 2.316406 -10.773438 2.03125 -11.625 2.03125 -12.53125 C 2.03125 -14.101562 2.609375 -15.390625 3.765625 -16.390625 C 4.929688 -17.398438 6.257812 -17.90625 7.75 -17.90625 Z M 7.75 -17.90625 "/></g></g></g><g fill="#ffffff" fill-opacity="1"><g transform="translate(101.085125, 25.712946)"><g><path d="M 1.28125 0 L 1.28125 -18.328125 L 5.046875 -18.328125 L 5.046875 -9.78125 L 5.09375 -9.78125 C 6.070312 -10.757812 7.117188 -11.25 8.234375 -11.25 C 8.765625 -11.25 9.296875 -11.175781 9.828125 -11.03125 C 10.367188 -10.894531 10.882812 -10.675781 11.375 -10.375 C 11.863281 -10.082031 12.257812 -9.660156 12.5625 -9.109375 C 12.863281 -8.566406 13.015625 -7.929688 13.015625 -7.203125 L 13.015625 0 L 9.25 0 L 9.25 -6.1875 C 9.25 -6.75 9.066406 -7.242188 8.703125 -7.671875 C 8.335938 -8.097656 7.863281 -8.3125 7.28125 -8.3125 C 6.71875 -8.3125 6.203125 -8.085938 5.734375 -7.640625 C 5.273438 -7.203125 5.046875 -6.71875 5.046875 -6.1875 L 5.046875 0 Z M 1.28125 0 "/></g></g></g><g fill="#ffffff" fill-opacity="1"><g transform="translate(113.169065, 25.712946)"><g><path d="M 2.3125 -1.296875 C 1.09375 -2.378906 0.484375 -3.765625 0.484375 -5.453125 C 0.484375 -7.140625 1.113281 -8.523438 2.375 -9.609375 C 3.644531 -10.703125 5.210938 -11.25 7.078125 -11.25 C 8.910156 -11.25 10.453125 -10.703125 11.703125 -9.609375 C 12.960938 -8.515625 13.59375 -7.128906 13.59375 -5.453125 C 13.59375 -3.773438 12.976562 -2.394531 11.75 -1.3125 C 10.519531 -0.226562 8.960938 0.3125 7.078125 0.3125 C 5.117188 0.3125 3.53125 -0.222656 2.3125 -1.296875 Z M 5.234375 -7.296875 C 4.742188 -6.816406 4.5 -6.203125 4.5 -5.453125 C 4.5 -4.703125 4.734375 -4.085938 5.203125 -3.609375 C 5.671875 -3.140625 6.285156 -2.90625 7.046875 -2.90625 C 7.785156 -2.90625 8.394531 -3.144531 8.875 -3.625 C 9.351562 -4.101562 9.59375 -4.710938 9.59375 -5.453125 C 9.59375 -6.203125 9.347656 -6.816406 8.859375 -7.296875 C 8.367188 -7.785156 7.765625 -8.03125 7.046875 -8.03125 C 6.328125 -8.03125 5.722656 -7.785156 5.234375 -7.296875 Z M 5.234375 -7.296875 "/></g></g></g><g fill="#ffffff" fill-opacity="1"><g transform="translate(125.253005, 25.712946)"><g><path d="M 12.53125 -9.578125 C 13.550781 -8.460938 14.0625 -7.09375 14.0625 -5.46875 C 14.0625 -3.851562 13.550781 -2.484375 12.53125 -1.359375 C 11.507812 -0.242188 10.207031 0.3125 8.625 0.3125 C 7.175781 0.3125 5.984375 -0.140625 5.046875 -1.046875 L 5.046875 5.546875 L 1.28125 5.546875 L 1.28125 -10.9375 L 5.015625 -10.9375 L 5.015625 -9.703125 L 5.046875 -9.703125 C 5.984375 -10.734375 7.175781 -11.25 8.625 -11.25 C 10.207031 -11.25 11.507812 -10.691406 12.53125 -9.578125 Z M 9.328125 -3.625 C 9.816406 -4.101562 10.0625 -4.71875 10.0625 -5.46875 C 10.0625 -6.226562 9.828125 -6.84375 9.359375 -7.3125 C 8.890625 -7.789062 8.269531 -8.03125 7.5 -8.03125 C 6.757812 -8.03125 6.148438 -7.785156 5.671875 -7.296875 C 5.203125 -6.816406 4.96875 -6.210938 4.96875 -5.484375 C 4.96875 -4.722656 5.210938 -4.101562 5.703125 -3.625 C 6.191406 -3.144531 6.789062 -2.90625 7.5 -2.90625 C 8.226562 -2.90625 8.835938 -3.144531 9.328125 -3.625 Z M 9.328125 -3.625 "/></g></g></g><g fill="#ffffff" fill-opacity="1"><g transform="translate(137.805816, 25.712946)"><g><path d="M 3.703125 -4.5625 C 4.390625 -4.5625 4.96875 -4.320312 5.4375 -3.84375 C 5.914062 -3.375 6.15625 -2.796875 6.15625 -2.109375 C 6.15625 -1.441406 5.914062 -0.867188 5.4375 -0.390625 C 4.96875 0.078125 4.390625 0.3125 3.703125 0.3125 C 3.035156 0.3125 2.460938 0.078125 1.984375 -0.390625 C 1.515625 -0.867188 1.28125 -1.441406 1.28125 -2.109375 C 1.28125 -2.796875 1.515625 -3.375 1.984375 -3.84375 C 2.460938 -4.320312 3.035156 -4.5625 3.703125 -4.5625 Z M 3.703125 -4.5625 "/></g></g></g></svg>